<?xml version="1.0" encoding="UTF-8" standalone="no"?>
<!-- Created with Inkscape (http://www.inkscape.org/) -->

<svg
   xmlns:dc="http://purl.org/dc/elements/1.1/"
   xmlns:cc="http://creativecommons.org/ns#"
   xmlns:rdf="http://www.w3.org/1999/02/22-rdf-syntax-ns#"
   xmlns:svg="http://www.w3.org/2000/svg"
   xmlns="http://www.w3.org/2000/svg"
   xmlns:sodipodi="http://sodipodi.sourceforge.net/DTD/sodipodi-0.dtd"
   xmlns:inkscape="http://www.inkscape.org/namespaces/inkscape"
   id="svg2"
   version="1.1"
   inkscape:version="0.91 r13725"
   xml:space="preserve"
   width="1388.75"
   height="980"
   viewBox="0 0 1388.75 980"
   sodipodi:docname="LogoASI-Granada.svg"><metadata
     id="metadata8"><rdf:RDF><cc:Work
         rdf:about=""><dc:format>image/svg+xml</dc:format><dc:type
           rdf:resource="http://purl.org/dc/dcmitype/StillImage" /><dc:title /></cc:Work></rdf:RDF></metadata><defs
     id="defs6" /><sodipodi:namedview
     pagecolor="#ffffff"
     bordercolor="#666666"
     borderopacity="1"
     objecttolerance="10"
     gridtolerance="10"
     guidetolerance="10"
     inkscape:pageopacity="0"
     inkscape:pageshadow="2"
     inkscape:window-width="1280"
     inkscape:window-height="751"
     id="namedview4"
     showgrid="false"
     inkscape:zoom="0.5"
     inkscape:cx="699.86569"
     inkscape:cy="559.18269"
     inkscape:window-x="0"
     inkscape:window-y="0"
     inkscape:window-maximized="1"
     inkscape:current-layer="layer6" /><g
     id="g10"
     inkscape:groupmode="layer"
     inkscape:label="Punto"
     transform="matrix(1.25,0,0,-1.25,0,980)"
     style="display:inline"><g
       id="g4159"><path
         transform="matrix(0.8,0,0,-0.8,0,784)"
         id="path4208"
         d="m 1147.7559,23.953125 -142.1016,58.861328 133.041,133.042967 a 25.683561,25.683561 0 0 1 9.0606,-3.78125 l 0,-188.123045 z m 10.1875,0.01563 0,188.072265 a 25.683561,25.683561 0 0 1 9.0859,3.79101 L 1300.0352,82.826172 1157.9434,23.96875 Z M 998.44141,90.007817 939.57617,232.1211 l 188.14653,0 a 25.683561,25.683561 0 0 1 3.7656,-9.0664 L 998.44141,90.007812 Z m 308.78909,0.02734 -133.0059,133.005863 a 25.683561,25.683561 0 0 1 3.7715,9.08007 l 188.0879,0 -58.8535,-142.085933 z M 1178.0117,242.30664 a 25.683561,25.683561 0 0 1 -3.7832,9.08398 l 133.002,133.00196 58.8535,-142.08594 -188.0723,0 z m -10.9902,16.28125 a 25.683561,25.683561 0 0 1 -9.0781,3.77344 l 0,188.09765 142.0918,-58.85742 -133.0137,-133.01367 z m -28.3477,0.006 -133.0195,133.01953 142.1016,58.86133 0,-188.0918 a 25.683561,25.683561 0 0 1 -9.0821,-3.78906 z"
         style="display:inline;fill:#000000;stroke:#000000;stroke-width:0;stroke-miterlimit:4;stroke-dasharray:none;stroke-dashoffset:0;stroke-opacity:1"
         inkscape:connector-curvature="0" /><circle
         style="fill:none;stroke:#000000;stroke-width:5.5999999;stroke-miterlimit:4;stroke-dasharray:none;stroke-dashoffset:0;stroke-opacity:1"
         id="circle4204"
         cx="922.27966"
         cy="-594.22882"
         r="170.66125"
         transform="scale(1,-1)" /><circle
         transform="scale(1,-1)"
         r="184.77991"
         cy="-594.22882"
         cx="922.27966"
         id="path4196"
         style="display:inline;fill:none;stroke:#000000;stroke-width:5.5999999;stroke-miterlimit:4;stroke-dasharray:none;stroke-dashoffset:0;stroke-opacity:1" /></g></g><g
     inkscape:groupmode="layer"
     id="layer7"
     inkscape:label="I"
     style="display:inline"><path
       style="display:inline;fill:#000000"
       d="m 1062.9,970.20368 0,-9.79632 4.9012,-0.61236 c 12.5952,-1.57365 23.1988,-13.27923 26.1897,-28.91133 1.9277,-10.07478 1.9398,-364.91044 0.013,-374.00164 -3.095,-14.6014 -11.682,-23.97198 -26.0109,-28.38425 l -5.0929,-1.56822 0,-10.16478 0,-10.16479 104.85,0 104.85,0 0,10.16479 0,10.16478 -5.0928,1.56822 c -14.329,4.41227 -22.916,13.78285 -26.0109,28.38425 -1.927,9.0912 -1.9148,363.92686 0.013,374.00164 2.9909,15.6321 13.5945,27.33768 26.1896,28.91133 l 4.9013,0.61236 0,9.79632 0,9.79632 -104.85,0 -104.85,0 0,-9.79632 z"
       id="path4159"
       inkscape:connector-curvature="0" /></g><g
     inkscape:groupmode="layer"
     id="layer6"
     inkscape:label="S"
     style="display:inline"><path
       style="display:inline;fill:#000000"
       d="m 760.95,816.50844 c -31.21964,-2.50594 -43.10472,-3.99445 -81.45,-10.201 -55.84019,-9.03827 -69.85214,-8.18208 -86.74875,5.3007 -4.62197,3.68813 -8.65125,3.84761 -8.65125,0.34243 0,-3.63085 -11.54935,-203.9095 -12.19792,-211.52558 l -0.55566,-6.525 9.93601,0 9.936,0 0.58171,3.375 c 19.92546,115.6053 115.54211,177.1805 232.33652,149.62004 56.68948,-13.37726 74.68839,-73.8178 31.66664,-106.33691 C 836.66285,626.09029 826.56846,622.07119 735.3,592.57944 625.69679,557.16315 584.01966,516.6231 581.67927,443.14999 578.57648,345.74211 635.74402,285.12095 745.2,269.75063 c 5.74942,-0.80737 18.13096,-1.19063 37.8,-1.17008 32.53562,0.034 35.0268,0.24685 101.7,8.68964 58.32144,7.38521 76.23063,6.26527 91.18467,-5.7022 4.43538,-3.54955 3.3543,-12.07964 9.08406,71.682 6.02649,88.0989 5.99382,86.75479 2.25414,92.7488 -6.90525,11.0678 -9.31167,9.83111 -21.98565,-11.2988 -32.08167,-53.4863 -67.34066,-81.45807 -115.9393,-91.97743 -58.65806,-12.69676 -109.97737,21.32522 -98.69703,65.43091 6.26638,24.50131 25.77326,35.38795 103.04911,57.51095 124.80993,35.73132 167.5589,62.99732 187.5398,119.616 48.5233,137.49692 -89.7467,256.51853 -280.2398,241.22802 z"
       id="path4156"
       inkscape:connector-curvature="0" /></g><g
     inkscape:groupmode="layer"
     id="layer4"
     inkscape:label="A"
     style="display:inline"><path
       style="fill:#000000"
       d="M 0,881.575 0,871.35 5.5723387,870.84472 C 16.710105,869.83478 36.110477,857.58643 46.869565,844.77186 59.605218,829.60313 62.975764,822.28443 84.89717,762.2 166.67315,538.06004 208.15932,423.57945 208.95785,419.85604 c 2.72812,-12.7208 -2.6088,-23.23421 -16.29686,-32.10376 l -4.56099,-2.95542 0,-9.74842 0,-9.74843 119.25,0 119.25,0 0,9.81448 0,9.81448 -4.26183,2.4976 c -14.30408,8.38274 -19.86011,18.92219 -17.03979,32.32344 2.12716,10.10762 142.50497,418.66837 145.79115,424.31596 7.60763,13.07437 21.82874,24.25331 35.03547,27.5407 l 6.075,1.51217 0,9.34057 0,9.34059 -134.1,0 -134.1,0 0,-10.18488 0,-10.18489 5.85721,-1.16423 C 388.87826,858.53448 370.47239,769.14042 300.04184,725.45801 269.88359,706.75327 216.27444,691.1 182.3729,691.1 c -3.10001,0 -29.59288,76.67986 -37.86446,109.59333 -11.81397,47.00894 -5.77441,64.55014 24.24156,70.40692 2.97,0.57951 6.31125,1.22924 7.425,1.44386 1.94638,0.37503 2.025,0.75644 2.025,9.82304 l 0,9.43285 -89.1,0 -89.1,0 0,-10.225 z m 315.43093,-211.4 c -0.22692,-0.61875 -12.76549,-41.625 -27.86351,-91.12499 -27.44089,-89.96713 -28.85844,-94.33633 -30.43614,-93.81043 -0.46337,0.15446 -12.33876,31.24748 -26.38977,69.09562 -14.051,37.84814 -26.15505,70.34567 -26.89787,72.21671 -1.05316,2.6527 -1.10207,3.47542 -0.22212,3.73567 0.62066,0.18356 7.79484,1.83156 15.94262,3.66222 44.21033,9.93325 69.59605,19.50141 90.48586,34.10515 4.87822,3.41028 6.01893,3.85972 5.38093,2.12005 z"
       id="path4149"
       inkscape:connector-curvature="0" /></g></svg>